<mxfile host="app.diagrams.net" modified="2021-10-07T21:23:00.281Z" agent="5.0 (X11; Linux x86_64) AppleWebKit/537.36 (KHTML, like Gecko) Chrome/92.0.4515.159 Safari/537.36" etag="AHKnaeiQZ1ughdSuMNVV" version="15.4.3" type="github">
  <diagram id="O50gPkitufK9IEt_SPF4" name="Page-1">
    <mxGraphModel dx="2272" dy="774" grid="1" gridSize="10" guides="1" tooltips="1" connect="1" arrows="1" fold="1" page="1" pageScale="1" pageWidth="850" pageHeight="1100" math="0" shadow="0">
      <root>
        <mxCell id="0" />
        <mxCell id="1" parent="0" />
        <mxCell id="mNdBqN4K85WTN30A87dM-35" style="edgeStyle=orthogonalEdgeStyle;rounded=0;orthogonalLoop=1;jettySize=auto;html=1;exitX=0.75;exitY=0;exitDx=0;exitDy=0;entryX=0.25;entryY=0;entryDx=0;entryDy=0;" edge="1" parent="1" source="mNdBqN4K85WTN30A87dM-1" target="mNdBqN4K85WTN30A87dM-4">
          <mxGeometry relative="1" as="geometry" />
        </mxCell>
        <mxCell id="mNdBqN4K85WTN30A87dM-1" value="service vmeste s Gateway" style="rounded=0;whiteSpace=wrap;html=1;" vertex="1" parent="1">
          <mxGeometry x="220" y="650" width="120" height="190" as="geometry" />
        </mxCell>
        <mxCell id="mNdBqN4K85WTN30A87dM-32" style="edgeStyle=orthogonalEdgeStyle;rounded=0;orthogonalLoop=1;jettySize=auto;html=1;exitX=0.75;exitY=0;exitDx=0;exitDy=0;entryX=0.5;entryY=0;entryDx=0;entryDy=0;" edge="1" parent="1" source="mNdBqN4K85WTN30A87dM-3" target="mNdBqN4K85WTN30A87dM-1">
          <mxGeometry relative="1" as="geometry" />
        </mxCell>
        <mxCell id="mNdBqN4K85WTN30A87dM-3" value="&lt;br&gt;&lt;br&gt;&lt;br&gt;&lt;br&gt;&lt;br&gt;&lt;br&gt;&lt;br&gt;&lt;br&gt;&lt;br&gt;&lt;br&gt;service-number odin" style="rounded=0;whiteSpace=wrap;html=1;" vertex="1" parent="1">
          <mxGeometry x="29" y="355" width="160" height="220" as="geometry" />
        </mxCell>
        <mxCell id="mNdBqN4K85WTN30A87dM-31" style="edgeStyle=orthogonalEdgeStyle;rounded=0;orthogonalLoop=1;jettySize=auto;html=1;exitX=0.5;exitY=0;exitDx=0;exitDy=0;entryX=1;entryY=0.25;entryDx=0;entryDy=0;" edge="1" parent="1" source="mNdBqN4K85WTN30A87dM-4" target="mNdBqN4K85WTN30A87dM-5">
          <mxGeometry relative="1" as="geometry" />
        </mxCell>
        <mxCell id="mNdBqN4K85WTN30A87dM-4" value="&lt;br&gt;&lt;br&gt;&lt;br&gt;&lt;br&gt;&lt;br&gt;&lt;br&gt;&lt;br&gt;&lt;br&gt;&lt;br&gt;&lt;br&gt;service-number dva" style="rounded=0;whiteSpace=wrap;html=1;" vertex="1" parent="1">
          <mxGeometry x="360" y="360" width="160" height="220" as="geometry" />
        </mxCell>
        <mxCell id="mNdBqN4K85WTN30A87dM-22" style="edgeStyle=orthogonalEdgeStyle;rounded=0;orthogonalLoop=1;jettySize=auto;html=1;startArrow=none;" edge="1" parent="1" source="mNdBqN4K85WTN30A87dM-27">
          <mxGeometry relative="1" as="geometry">
            <mxPoint x="120" y="360" as="targetPoint" />
          </mxGeometry>
        </mxCell>
        <mxCell id="mNdBqN4K85WTN30A87dM-5" value="фронтендер какой то" style="rounded=0;whiteSpace=wrap;html=1;" vertex="1" parent="1">
          <mxGeometry x="90" y="90" width="160" height="100" as="geometry" />
        </mxCell>
        <mxCell id="mNdBqN4K85WTN30A87dM-14" value="resolver layer" style="rounded=1;whiteSpace=wrap;html=1;" vertex="1" parent="1">
          <mxGeometry x="49" y="390" width="120" height="30" as="geometry" />
        </mxCell>
        <mxCell id="mNdBqN4K85WTN30A87dM-15" value="service layer" style="rounded=1;whiteSpace=wrap;html=1;" vertex="1" parent="1">
          <mxGeometry x="49" y="420" width="120" height="30" as="geometry" />
        </mxCell>
        <mxCell id="mNdBqN4K85WTN30A87dM-16" value="domain layer" style="rounded=1;whiteSpace=wrap;html=1;" vertex="1" parent="1">
          <mxGeometry x="49" y="450" width="120" height="30" as="geometry" />
        </mxCell>
        <mxCell id="mNdBqN4K85WTN30A87dM-17" value="repository layer" style="rounded=1;whiteSpace=wrap;html=1;" vertex="1" parent="1">
          <mxGeometry x="49" y="480" width="120" height="30" as="geometry" />
        </mxCell>
        <mxCell id="mNdBqN4K85WTN30A87dM-18" value="resolver layer" style="rounded=1;whiteSpace=wrap;html=1;" vertex="1" parent="1">
          <mxGeometry x="380" y="390" width="120" height="30" as="geometry" />
        </mxCell>
        <mxCell id="mNdBqN4K85WTN30A87dM-19" value="service layer" style="rounded=1;whiteSpace=wrap;html=1;" vertex="1" parent="1">
          <mxGeometry x="380" y="420" width="120" height="30" as="geometry" />
        </mxCell>
        <mxCell id="mNdBqN4K85WTN30A87dM-20" value="domain layer" style="rounded=1;whiteSpace=wrap;html=1;" vertex="1" parent="1">
          <mxGeometry x="380" y="450" width="120" height="30" as="geometry" />
        </mxCell>
        <mxCell id="mNdBqN4K85WTN30A87dM-21" value="repository layer" style="rounded=1;whiteSpace=wrap;html=1;" vertex="1" parent="1">
          <mxGeometry x="380" y="480" width="120" height="30" as="geometry" />
        </mxCell>
        <mxCell id="mNdBqN4K85WTN30A87dM-23" value="Вот тут вот запрос&amp;nbsp; на gql сервис с каким то аргументами, пусть id: 8 со стороны фронтендера" style="rounded=1;whiteSpace=wrap;html=1;" vertex="1" parent="1">
          <mxGeometry x="-300" y="200" width="461" height="30" as="geometry" />
        </mxCell>
        <mxCell id="mNdBqN4K85WTN30A87dM-24" value="вот в этом сервисе с репозитория вытянули юзера с id === 8 сделали с ним логику какую то и обратно всё вернули на резолвер и отправили на гейтвей" style="rounded=0;whiteSpace=wrap;html=1;" vertex="1" parent="1">
          <mxGeometry x="-230" y="470" width="259" height="120" as="geometry" />
        </mxCell>
        <mxCell id="mNdBqN4K85WTN30A87dM-28" value="2" style="rounded=0;whiteSpace=wrap;html=1;" vertex="1" parent="1">
          <mxGeometry x="260" y="590" width="35" height="30" as="geometry" />
        </mxCell>
        <mxCell id="mNdBqN4K85WTN30A87dM-29" value="3" style="rounded=0;whiteSpace=wrap;html=1;" vertex="1" parent="1">
          <mxGeometry x="340" y="320" width="40" height="30" as="geometry" />
        </mxCell>
        <mxCell id="mNdBqN4K85WTN30A87dM-30" value="4" style="rounded=0;whiteSpace=wrap;html=1;" vertex="1" parent="1">
          <mxGeometry x="320" y="90" width="40" height="40" as="geometry" />
        </mxCell>
        <mxCell id="mNdBqN4K85WTN30A87dM-33" value="Дальше с гейтвея перенаправляем на сервис намбер два" style="rounded=0;whiteSpace=wrap;html=1;" vertex="1" parent="1">
          <mxGeometry x="70" y="670" width="150" height="60" as="geometry" />
        </mxCell>
        <mxCell id="mNdBqN4K85WTN30A87dM-27" value="1" style="rounded=0;whiteSpace=wrap;html=1;" vertex="1" parent="1">
          <mxGeometry x="100" y="300" width="40" height="30" as="geometry" />
        </mxCell>
        <mxCell id="mNdBqN4K85WTN30A87dM-38" value="" style="edgeStyle=orthogonalEdgeStyle;rounded=0;orthogonalLoop=1;jettySize=auto;html=1;endArrow=none;" edge="1" parent="1" source="mNdBqN4K85WTN30A87dM-5" target="mNdBqN4K85WTN30A87dM-27">
          <mxGeometry relative="1" as="geometry">
            <mxPoint x="120" y="360" as="targetPoint" />
            <mxPoint x="170" y="190" as="sourcePoint" />
          </mxGeometry>
        </mxCell>
        <mxCell id="mNdBqN4K85WTN30A87dM-40" value="А это респонс фронтедера" style="rounded=0;whiteSpace=wrap;html=1;" vertex="1" parent="1">
          <mxGeometry x="405" y="50" width="195" height="60" as="geometry" />
        </mxCell>
        <mxCell id="mNdBqN4K85WTN30A87dM-41" value="Принимакм с гейтвея и снова идём в репозитоирй этого сервиса и делаем какую то логику и отдаём уже челу на фронте" style="rounded=0;whiteSpace=wrap;html=1;" vertex="1" parent="1">
          <mxGeometry x="520" y="490" width="220" height="110" as="geometry" />
        </mxCell>
      </root>
    </mxGraphModel>
  </diagram>
</mxfile>
